<svg xmlns="http://www.w3.org/2000/svg" xmlns:xlink="http://www.w3.org/1999/xlink" width="500" zoomAndPan="magnify" viewBox="0 0 375 374.999991" height="500" preserveAspectRatio="xMidYMid meet" version="1.0"><defs><clipPath id="dbe121646c"><path d="M 45.925781 142.496094 L 183.925781 142.496094 L 183.925781 297.746094 L 45.925781 297.746094 Z M 45.925781 142.496094 " clip-rule="nonzero"/></clipPath><clipPath id="3d5ab7ca11"><path d="M 45.859375 220 L 183.859375 220 L 183.859375 375 L 45.859375 375 Z M 45.859375 220 " clip-rule="nonzero"/></clipPath><clipPath id="f1077837a3"><path d="M 45.859375 220.164062 L 183.617188 220.164062 L 183.617188 297.328125 L 45.859375 297.328125 Z M 45.859375 220.164062 " clip-rule="nonzero"/></clipPath><clipPath id="ca83467ea5"><path d="M 191.382812 142.496094 L 329.382812 142.496094 L 329.382812 297.746094 L 191.382812 297.746094 Z M 191.382812 142.496094 " clip-rule="nonzero"/></clipPath><clipPath id="fa75495596"><path d="M 191.445312 220 L 329.445312 220 L 329.445312 375 L 191.445312 375 Z M 191.445312 220 " clip-rule="nonzero"/></clipPath><clipPath id="781e060e91"><path d="M 191.382812 220.335938 L 329.140625 220.335938 L 329.140625 297.5 L 191.382812 297.5 Z M 191.382812 220.335938 " clip-rule="nonzero"/></clipPath><clipPath id="1ee808a5ca"><path d="M 45.859375 53.304688 L 187.609375 53.304688 L 187.609375 213.054688 L 45.859375 213.054688 Z M 45.859375 53.304688 " clip-rule="nonzero"/></clipPath><clipPath id="f6a877938e"><path d="M 187.5 53.304688 L 329.25 53.304688 L 329.25 213 L 187.5 213 Z M 187.5 53.304688 " clip-rule="nonzero"/></clipPath><clipPath id="02316772ef"><path d="M 75.664062 53.308594 L 299.164062 53.308594 L 299.164062 213.058594 L 75.664062 213.058594 Z M 75.664062 53.308594 " clip-rule="nonzero"/></clipPath></defs><g clip-path="url(#dbe121646c)"><path fill="#1c365c" d="M 45.925781 297.691406 L 45.925781 142.558594 L 183.910156 220.125 Z M 45.925781 297.691406 " fill-opacity="1" fill-rule="nonzero"/><path fill="#1c365c" d="M 45.925781 297.691406 L 45.925781 142.558594 L 183.910156 220.125 Z M 45.925781 297.691406 " fill-opacity="1" fill-rule="nonzero"/></g><g clip-path="url(#3d5ab7ca11)"><path fill="#1c365c" d="M 183.84375 375.234375 L 183.84375 220.019531 L 45.859375 297.625 Z M 183.84375 375.234375 " fill-opacity="1" fill-rule="nonzero"/><path fill="#1c365c" d="M 183.84375 375.234375 L 183.84375 220.019531 L 45.859375 297.625 Z M 183.84375 375.234375 " fill-opacity="1" fill-rule="nonzero"/></g><g clip-path="url(#f1077837a3)"><path fill="#1c365c" d="M 45.859375 220.164062 L 183.617188 220.164062 L 183.617188 297.328125 L 45.859375 297.328125 Z M 45.859375 220.164062 " fill-opacity="1" fill-rule="nonzero"/></g><g clip-path="url(#ca83467ea5)"><path fill="#cdd0d1" d="M 329.367188 297.730469 L 329.367188 142.515625 L 191.382812 220.125 Z M 329.367188 297.730469 " fill-opacity="1" fill-rule="nonzero"/><path fill="#cdd0d1" d="M 329.367188 297.730469 L 329.367188 142.515625 L 191.382812 220.125 Z M 329.367188 297.730469 " fill-opacity="1" fill-rule="nonzero"/></g><g clip-path="url(#fa75495596)"><path fill="#cdd0d1" d="M 191.445312 375.195312 L 191.445312 220.058594 L 329.433594 297.625 Z M 191.445312 375.195312 " fill-opacity="1" fill-rule="nonzero"/><path fill="#cdd0d1" d="M 191.445312 375.195312 L 191.445312 220.058594 L 329.433594 297.625 Z M 191.445312 375.195312 " fill-opacity="1" fill-rule="nonzero"/></g><g clip-path="url(#781e060e91)"><path fill="#cdd0d1" d="M 191.382812 220.335938 L 329.140625 220.335938 L 329.140625 297.5 L 191.382812 297.5 Z M 191.382812 220.335938 " fill-opacity="1" fill-rule="nonzero"/></g><g clip-path="url(#1ee808a5ca)"><path fill="#2dc7ce" d="M 187.59375 213.039062 L 187.59375 53.328125 L 45.859375 133.183594 Z M 187.59375 213.039062 " fill-opacity="1" fill-rule="nonzero"/><path fill="#2dc7ce" d="M 187.59375 213.039062 L 187.59375 53.328125 L 45.859375 133.183594 Z M 187.59375 213.039062 " fill-opacity="1" fill-rule="nonzero"/></g><g clip-path="url(#f6a877938e)"><path fill="#2dc7ce" d="M 187.5 213 L 187.5 53.367188 L 329.234375 133.183594 Z M 187.5 213 " fill-opacity="1" fill-rule="nonzero"/><path fill="#2dc7ce" d="M 187.5 213 L 187.5 53.367188 L 329.234375 133.183594 Z M 187.5 213 " fill-opacity="1" fill-rule="nonzero"/></g><g clip-path="url(#02316772ef)"><path fill="#2dc7ce" d="M 299.074219 133.183594 L 187.414062 53.308594 L 75.753906 133.183594 L 187.414062 213.058594 Z M 299.074219 133.183594 " fill-opacity="1" fill-rule="nonzero"/></g></svg>